PathFileType	4	(X/Y/Z)	C:\Windows.old\Documents and Settings\Ensem\Mes documents\Donnees_Motion\SAMI\pidr22-markerset_robot3.trc
DataRate	CameraRate	NumFrames	NumMarkers	Units	OrigDataRate	OrigDataStartFrame	OrigNumFrames
60.00	60.00	        60	4	mm	60.00	1	        60
Frame#	Time	robot3-fl			robot3-fr			robot3-bl			robot3-u			V_wheel_L			V_wheel_R			V_front			V_back			
		X1	Y1	Z1	X2	Y2	Z2	X3	Y3	Z3	X4	Y4	Z4	X5	Y5	Z5	X6	Y6	Z6	X7	Y7	Z7	X8	Y8	Z8	

1	0.000	-799.53290	-42.00572	180.50909	-802.40637	34.65602	183.26955	-755.61951	-39.32278	182.77837	-798.98041	-3.87871	241.81461													
2	0.017	-799.41388	-41.75634	180.58200	-802.40637	34.65602	183.26955				-799.32861	-3.94070	241.89330													
3	0.033	-799.53290	-42.00572	180.50909	-802.40637	34.65602	183.26955	-755.61951	-39.32278	182.77837	-799.32861	-3.94070	241.89330													
4	0.050	-799.53290	-42.00572	180.50909	-802.40637	34.65602	183.26955	-755.61951	-39.32278	182.77837	-798.98041	-3.87871	241.81461													
5	0.067	-799.53290	-42.00572	180.50909	-802.63654	34.67459	183.52362	-755.62720	-39.02741	183.20792	-799.32861	-3.94070	241.89330													
6	0.083	-799.53290	-42.00572	180.50909	-802.40637	34.65602	183.26955	-755.61951	-39.32278	182.77837	-799.32861	-3.94070	241.89330													
7	0.100	-799.53290	-42.00572	180.50909	-802.40637	34.65602	183.26955	-755.61951	-39.32278	182.77837	-799.32861	-3.94070	241.89330													
8	0.117	-799.53290	-42.00572	180.50909	-802.40637	34.65602	183.26955	-755.61951	-39.32278	182.77837	-799.32861	-3.94070	241.89330													
9	0.133	-799.53290	-42.00572	180.50909	-802.40637	34.65602	183.26955	-755.61951	-39.32278	182.77837	-799.32861	-3.94070	241.89330													
10	0.150	-799.53290	-42.00572	180.50909	-802.40637	34.65602	183.26955	-755.61951	-39.32278	182.77837	-799.32861	-3.94070	241.89330													
11	0.167	-799.53290	-42.00572	180.50909	-802.40637	34.65602	183.26955	-755.61951	-39.32278	182.77837	-799.32861	-3.94070	241.89330													
12	0.183	-799.53290	-42.00572	180.50909	-802.40637	34.65602	183.26955	-755.61951	-39.32278	182.77837	-799.32861	-3.94070	241.89330													
13	0.200	-799.53290	-42.00572	180.50909	-802.40637	34.65602	183.26955	-755.62720	-39.02741	183.20792	-798.98041	-3.87871	241.81461													
14	0.217	-799.53290	-42.00572	180.50909	-802.40637	34.65602	183.26955	-755.61951	-39.32278	182.77837	-799.32861	-3.94070	241.89330													
15	0.233	-799.41388	-41.75634	180.58200	-802.40637	34.65602	183.26955				-798.98041	-3.87871	241.81461													
16	0.250	-799.53290	-42.00572	180.50909	-802.63654	34.67459	183.52362	-755.61951	-39.32278	182.77837	-799.32861	-3.94070	241.89330													
17	0.267	-799.53290	-42.00572	180.50909	-802.40637	34.65602	183.26955	-755.61951	-39.32278	182.77837	-799.32861	-3.94070	241.89330													
18	0.283	-799.53290	-42.00572	180.50909	-802.40637	34.65602	183.26955	-755.61951	-39.32278	182.77837	-799.32861	-3.94070	241.89330													
19	0.300	-799.53290	-42.00572	180.50909	-802.40637	34.65602	183.26955	-755.61951	-39.32278	182.77837	-799.32861	-3.94070	241.89330													
20	0.317	-799.53290	-42.00572	180.50909	-802.40637	34.65602	183.26955	-755.61951	-39.32278	182.77837	-798.98041	-3.87871	241.81461													
21	0.333	-799.53290	-42.00572	180.50909	-802.40637	34.65602	183.26955	-755.61951	-39.32278	182.77837	-798.98041	-3.87871	241.81461													
22	0.350	-799.53290	-42.00572	180.50909	-802.40637	34.65602	183.26955	-755.61951	-39.32278	182.77837	-799.32861	-3.94070	241.89330													
23	0.367	-799.53290	-42.00572	180.50909	-802.40637	34.65602	183.26955	-755.61951	-39.32278	182.77837	-798.98041	-3.87871	241.81461													
24	0.383	-799.53290	-42.00572	180.50909	-802.40637	34.65602	183.26955	-755.62720	-39.02741	183.20792	-799.32861	-3.94070	241.89330													
25	0.400	-799.53290	-42.00572	180.50909	-802.40637	34.65602	183.26955	-755.61951	-39.32278	182.77837	-799.32861	-3.94070	241.89330													
26	0.417	-799.53290	-42.00572	180.50909	-802.40637	34.65602	183.26955	-755.61951	-39.32278	182.77837	-799.32861	-3.94070	241.89330													
27	0.433	-799.53290	-42.00572	180.50909	-802.40637	34.65602	183.26955	-755.61951	-39.32278	182.77837	-799.32861	-3.94070	241.89330													
28	0.450	-799.53290	-42.00572	180.50909	-802.40637	34.65602	183.26955	-755.61951	-39.32278	182.77837	-799.32861	-3.94070	241.89330													
29	0.467	-799.53290	-42.00572	180.50909	-802.40637	34.65602	183.26955	-755.61951	-39.32278	182.77837	-799.32861	-3.94070	241.89330													
30	0.483	-799.53290	-42.00572	180.50909	-802.40637	34.65602	183.26955	-755.61951	-39.32278	182.77837	-798.98041	-3.87871	241.81461													
31	0.500	-799.53290	-42.00572	180.50909	-802.40637	34.65602	183.26955	-755.61951	-39.32278	182.77837	-799.32861	-3.94070	241.89330													
32	0.517	-799.53290	-42.00572	180.50909	-802.40637	34.65602	183.26955	-755.61951	-39.32278	182.77837	-799.32861	-3.94070	241.89330													
33	0.533	-799.53290	-42.00572	180.50909	-802.40637	34.65602	183.26955	-755.61951	-39.32278	182.77837	-799.32861	-3.94070	241.89330													
34	0.550	-799.46729	-41.79161	180.14783	-802.40637	34.65602	183.26955	-755.61951	-39.32278	182.77837	-798.98041	-3.87871	241.81461													
35	0.567	-799.53290	-42.00572	180.50909	-802.40637	34.65602	183.26955	-755.61951	-39.32278	182.77837	-799.32861	-3.94070	241.89330													
36	0.583	-799.53290	-42.00572	180.50909	-802.40637	34.65602	183.26955	-755.61951	-39.32278	182.77837	-799.32861	-3.94070	241.89330													
37	0.600	-799.53290	-42.00572	180.50909	-802.40637	34.65602	183.26955	-755.61951	-39.32278	182.77837	-799.32861	-3.94070	241.89330													
38	0.617	-799.53290	-42.00572	180.50909	-802.40637	34.65602	183.26955	-755.61951	-39.32278	182.77837	-799.32861	-3.94070	241.89330													
39	0.633	-799.53290	-42.00572	180.50909	-802.40637	34.65602	183.26955	-755.61951	-39.32278	182.77837	-799.32861	-3.94070	241.89330													
40	0.650	-799.53290	-42.00572	180.50909	-802.40637	34.65602	183.26955	-755.61951	-39.32278	182.77837	-798.98041	-3.87871	241.81461													
41	0.667	-799.53290	-42.00572	180.50909	-802.40637	34.65602	183.26955	-755.61951	-39.32278	182.77837	-799.32861	-3.94070	241.89330													
42	0.683	-799.53290	-42.00572	180.50909	-802.40637	34.65602	183.26955	-755.61951	-39.32278	182.77837	-799.32861	-3.94070	241.89330													
43	0.700	-799.53290	-42.00572	180.50909	-802.40637	34.65602	183.26955	-755.61951	-39.32278	182.77837	-799.32861	-3.94070	241.89330													
44	0.717	-799.53290	-42.00572	180.50909	-802.40637	34.65602	183.26955	-755.61951	-39.32278	182.77837	-799.32861	-3.94070	241.89330													
45	0.733	-799.53290	-42.00572	180.50909	-802.40637	34.65602	183.26955	-755.61951	-39.32278	182.77837	-799.32861	-3.94070	241.89330													
46	0.750	-799.53290	-42.00572	180.50909	-802.40637	34.65602	183.26955	-755.62720	-39.02741	183.20792	-799.32861	-3.94070	241.89330													
47	0.767	-799.53290	-42.00572	180.50909	-802.40637	34.65602	183.26955	-755.61951	-39.32278	182.77837	-799.32861	-3.94070	241.89330													
48	0.783	-799.46729	-41.79161	180.14783	-802.40637	34.65602	183.26955	-755.61951	-39.32278	182.77837	-799.32861	-3.94070	241.89330													
49	0.800	-799.53290	-42.00572	180.50909	-802.63654	34.67459	183.52362	-755.61951	-39.32278	182.77837	-799.32861	-3.94070	241.89330													
50	0.817	-799.53290	-42.00572	180.50909	-802.40637	34.65602	183.26955	-755.61951	-39.32278	182.77837	-799.32861	-3.94070	241.89330													
51	0.833	-799.53290	-42.00572	180.50909	-802.40637	34.65602	183.26955	-755.61951	-39.32278	182.77837	-799.32861	-3.94070	241.89330													
52	0.850	-799.41388	-41.75634	180.58200	-802.63654	34.67459	183.52362				-799.32861	-3.94070	241.89330													
53	0.867	-799.53290	-42.00572	180.50909	-802.40637	34.65602	183.26955	-755.61951	-39.32278	182.77837	-799.32861	-3.94070	241.89330													
54	0.883	-799.53290	-42.00572	180.50909	-802.40637	34.65602	183.26955	-755.61951	-39.32278	182.77837	-799.32861	-3.94070	241.89330													
55	0.900	-799.53290	-42.00572	180.50909	-802.40637	34.65602	183.26955	-755.61951	-39.32278	182.77837	-798.98041	-3.87871	241.81461													
56	0.917	-799.53290	-42.00572	180.50909	-802.40637	34.65602	183.26955	-755.61951	-39.32278	182.77837	-799.32861	-3.94070	241.89330													
57	0.933	-799.53290	-42.00572	180.50909	-802.40637	34.65602	183.26955	-755.61951	-39.32278	182.77837	-799.32861	-3.94070	241.89330													
58	0.950	-799.53290	-42.00572	180.50909	-802.40637	34.65602	183.26955	-755.61951	-39.32278	182.77837	-799.32861	-3.94070	241.89330													
59	0.967	-799.53290	-42.00572	180.50909	-802.40637	34.65602	183.26955	-755.61951	-39.32278	182.77837	-798.98041	-3.87871	241.81461													
60	0.983	-799.53290	-42.00572	180.50909	-802.40637	34.65602	183.26955	-755.61951	-39.32278	182.77837	-799.32861	-3.94070	241.89330													
